<?xml version="1.0"?>
<svg xmlns="http://www.w3.org/2000/svg" height="512px" viewBox="-100 0 512 512" width="512px"><g><path d="m239.507812 150.351562c-34.863281-75.132812-70.203124-141.640624-70.558593-142.304687-2.632813-4.953125-7.785157-8.046875-13.394531-8.046875-5.613282 0-10.765626 3.09375-13.398438 8.046875-.355469.664063-35.695312 67.171875-70.558594 142.304687-47.507812 102.378907-71.597656 171.722657-71.597656 206.09375 0 85.773438 69.78125 155.554688 155.554688 155.554688 85.769531 0 155.550781-69.78125 155.550781-155.554688 0-34.371093-24.089844-103.714843-71.597657-206.09375zm-83.953124 331.292969c-69.035157 0-125.199219-56.164062-125.199219-125.199219 0-54.367187 80.855469-222.484374 125.199219-308.523437 44.339843 86.03125 125.195312 254.144531 125.195312 308.523437 0 69.035157-56.164062 125.199219-125.195312 125.199219zm0 0" data-original="#000000" class="active-path" data-old_color="#000000" fill="#FFFFFF"/></g> </svg>
